<?xml version="1.0" encoding="UTF-8" standalone="no"?>
<!DOCTYPE svg PUBLIC "-//W3C//DTD SVG 1.1//EN"
 "http://www.w3.org/Graphics/SVG/1.1/DTD/svg11.dtd">
<!-- Generated by graphviz version 3.0.0 (20220227.1548)
 -->
<!-- Title: snakemake_dag Pages: 1 -->
<svg width="640pt" height="476pt"
 viewBox="0.00 0.00 640.00 476.00" xmlns="http://www.w3.org/2000/svg" xmlns:xlink="http://www.w3.org/1999/xlink">
<g id="graph0" class="graph" transform="scale(1 1) rotate(0) translate(4 472)">
<title>snakemake_dag</title>
<polygon fill="white" stroke="transparent" points="-4,4 -4,-472 636,-472 636,4 -4,4"/>
<!-- 0 -->
<g id="node1" class="node">
<title>0</title>
<path fill="none" stroke="#5673d8" stroke-width="2" d="M356.5,-36C356.5,-36 326.5,-36 326.5,-36 320.5,-36 314.5,-30 314.5,-24 314.5,-24 314.5,-12 314.5,-12 314.5,-6 320.5,0 326.5,0 326.5,0 356.5,0 356.5,0 362.5,0 368.5,-6 368.5,-12 368.5,-12 368.5,-24 368.5,-24 368.5,-30 362.5,-36 356.5,-36"/>
<text text-anchor="middle" x="341.5" y="-15.5" font-family="sans" font-size="10.00">all</text>
</g>
<!-- 1 -->
<g id="node2" class="node">
<title>1</title>
<path fill="none" stroke="#5682d8" stroke-width="2" d="M373,-180C373,-180 300,-180 300,-180 294,-180 288,-174 288,-168 288,-168 288,-156 288,-156 288,-150 294,-144 300,-144 300,-144 373,-144 373,-144 379,-144 385,-150 385,-156 385,-156 385,-168 385,-168 385,-174 379,-180 373,-180"/>
<text text-anchor="middle" x="336.5" y="-159.5" font-family="sans" font-size="10.00">metator_binning</text>
</g>
<!-- 1&#45;&gt;0 -->
<g id="edge4" class="edge">
<title>1&#45;&gt;0</title>
<path fill="none" stroke="grey" stroke-width="2" d="M385.18,-145.4C402.65,-137.18 420.48,-125.15 430.5,-108 438.57,-94.18 438.41,-85.91 430.5,-72 419.25,-52.21 397.36,-39.03 378.1,-30.76"/>
<polygon fill="grey" stroke="grey" stroke-width="2" points="379.22,-27.44 368.63,-26.98 376.62,-33.94 379.22,-27.44"/>
</g>
<!-- 10 -->
<g id="node11" class="node">
<title>10</title>
<path fill="none" stroke="#d8d356" stroke-width="2" d="M121.5,-108C121.5,-108 73.5,-108 73.5,-108 67.5,-108 61.5,-102 61.5,-96 61.5,-96 61.5,-84 61.5,-84 61.5,-78 67.5,-72 73.5,-72 73.5,-72 121.5,-72 121.5,-72 127.5,-72 133.5,-78 133.5,-84 133.5,-84 133.5,-96 133.5,-96 133.5,-102 127.5,-108 121.5,-108"/>
<text text-anchor="middle" x="97.5" y="-87.5" font-family="sans" font-size="10.00">qc_metator</text>
</g>
<!-- 1&#45;&gt;10 -->
<g id="edge18" class="edge">
<title>1&#45;&gt;10</title>
<path fill="none" stroke="grey" stroke-width="2" d="M287.78,-148.86C248.55,-138.79 192.13,-123.63 143.5,-108 143.4,-107.97 143.3,-107.93 143.2,-107.9"/>
<polygon fill="grey" stroke="grey" stroke-width="2" points="144.15,-104.53 133.56,-104.66 141.92,-111.17 144.15,-104.53"/>
</g>
<!-- 11 -->
<g id="node12" class="node">
<title>11</title>
<path fill="none" stroke="#56d8b1" stroke-width="2" d="M229,-108C229,-108 164,-108 164,-108 158,-108 152,-102 152,-96 152,-96 152,-84 152,-84 152,-78 158,-72 164,-72 164,-72 229,-72 229,-72 235,-72 241,-78 241,-84 241,-84 241,-96 241,-96 241,-102 235,-108 229,-108"/>
<text text-anchor="middle" x="196.5" y="-87.5" font-family="sans" font-size="10.00">qc_metator_lib</text>
</g>
<!-- 1&#45;&gt;11 -->
<g id="edge21" class="edge">
<title>1&#45;&gt;11</title>
<path fill="none" stroke="grey" stroke-width="2" d="M302.25,-143.88C283.44,-134.47 259.92,-122.71 239.83,-112.67"/>
<polygon fill="grey" stroke="grey" stroke-width="2" points="241.39,-109.53 230.88,-108.19 238.26,-115.79 241.39,-109.53"/>
</g>
<!-- 12 -->
<g id="node13" class="node">
<title>12</title>
<path fill="none" stroke="#56d873" stroke-width="2" d="M322,-108C322,-108 271,-108 271,-108 265,-108 259,-102 259,-96 259,-96 259,-84 259,-84 259,-78 265,-72 271,-72 271,-72 322,-72 322,-72 328,-72 334,-78 334,-84 334,-84 334,-96 334,-96 334,-102 328,-108 322,-108"/>
<text text-anchor="middle" x="296.5" y="-87.5" font-family="sans" font-size="10.00">run_checkM</text>
</g>
<!-- 1&#45;&gt;12 -->
<g id="edge22" class="edge">
<title>1&#45;&gt;12</title>
<path fill="none" stroke="grey" stroke-width="2" d="M326.61,-143.7C322.01,-135.64 316.44,-125.89 311.35,-116.98"/>
<polygon fill="grey" stroke="grey" stroke-width="2" points="314.27,-115.05 306.27,-108.1 308.2,-118.52 314.27,-115.05"/>
</g>
<!-- 13 -->
<g id="node14" class="node">
<title>13</title>
<path fill="none" stroke="#56a2d8" stroke-width="2" d="M409,-108C409,-108 364,-108 364,-108 358,-108 352,-102 352,-96 352,-96 352,-84 352,-84 352,-78 358,-72 364,-72 364,-72 409,-72 409,-72 415,-72 421,-78 421,-84 421,-84 421,-96 421,-96 421,-102 415,-108 409,-108"/>
<text text-anchor="middle" x="386.5" y="-87.5" font-family="sans" font-size="10.00">run_gtdbtk</text>
</g>
<!-- 1&#45;&gt;13 -->
<g id="edge23" class="edge">
<title>1&#45;&gt;13</title>
<path fill="none" stroke="grey" stroke-width="2" d="M348.86,-143.7C354.73,-135.47 361.87,-125.48 368.34,-116.42"/>
<polygon fill="grey" stroke="grey" stroke-width="2" points="371.32,-118.28 374.28,-108.1 365.62,-114.21 371.32,-118.28"/>
</g>
<!-- 14 -->
<g id="node15" class="node">
<title>14</title>
<path fill="none" stroke="#56d8c1" stroke-width="2" d="M541.5,-108C541.5,-108 489.5,-108 489.5,-108 483.5,-108 477.5,-102 477.5,-96 477.5,-96 477.5,-84 477.5,-84 477.5,-78 483.5,-72 489.5,-72 489.5,-72 541.5,-72 541.5,-72 547.5,-72 553.5,-78 553.5,-84 553.5,-84 553.5,-96 553.5,-96 553.5,-102 547.5,-108 541.5,-108"/>
<text text-anchor="middle" x="515.5" y="-87.5" font-family="sans" font-size="10.00">metavir_run</text>
</g>
<!-- 1&#45;&gt;14 -->
<g id="edge26" class="edge">
<title>1&#45;&gt;14</title>
<path fill="none" stroke="grey" stroke-width="2" d="M380.29,-143.88C406.86,-133.48 440.78,-120.22 468,-109.58"/>
<polygon fill="grey" stroke="grey" stroke-width="2" points="469.29,-112.83 477.32,-105.93 466.74,-106.31 469.29,-112.83"/>
</g>
<!-- 2 -->
<g id="node3" class="node">
<title>2</title>
<path fill="none" stroke="#56d892" stroke-width="2" d="M261,-252C261,-252 176,-252 176,-252 170,-252 164,-246 164,-240 164,-240 164,-228 164,-228 164,-222 170,-216 176,-216 176,-216 261,-216 261,-216 267,-216 273,-222 273,-228 273,-228 273,-240 273,-240 273,-246 267,-252 261,-252"/>
<text text-anchor="middle" x="218.5" y="-231.5" font-family="sans" font-size="10.00">sort_metator_pairs</text>
</g>
<!-- 2&#45;&gt;1 -->
<g id="edge7" class="edge">
<title>2&#45;&gt;1</title>
<path fill="none" stroke="grey" stroke-width="2" d="M247.37,-215.88C262.79,-206.72 281.98,-195.34 298.6,-185.48"/>
<polygon fill="grey" stroke="grey" stroke-width="2" points="300.71,-188.3 307.52,-180.19 297.14,-182.28 300.71,-188.3"/>
</g>
<!-- 2&#45;&gt;10 -->
<g id="edge16" class="edge">
<title>2&#45;&gt;10</title>
<path fill="none" stroke="grey" stroke-width="2" d="M203.9,-215.87C182.74,-191.03 143.38,-144.85 118.92,-116.14"/>
<polygon fill="grey" stroke="grey" stroke-width="2" points="121.3,-113.53 112.15,-108.19 115.97,-118.07 121.3,-113.53"/>
</g>
<!-- 2&#45;&gt;11 -->
<g id="edge19" class="edge">
<title>2&#45;&gt;11</title>
<path fill="none" stroke="grey" stroke-width="2" d="M215.85,-215.87C212.1,-191.67 205.21,-147.21 200.74,-118.39"/>
<polygon fill="grey" stroke="grey" stroke-width="2" points="204.15,-117.54 199.16,-108.19 197.24,-118.61 204.15,-117.54"/>
</g>
<!-- 2&#45;&gt;14 -->
<g id="edge24" class="edge">
<title>2&#45;&gt;14</title>
<path fill="none" stroke="grey" stroke-width="2" d="M273.02,-218.77C316.35,-207.05 373.09,-190.7 394.5,-180 404.19,-175.16 452.27,-139.11 484.83,-114.4"/>
<polygon fill="grey" stroke="grey" stroke-width="2" points="487.3,-116.92 493.15,-108.08 483.07,-111.35 487.3,-116.92"/>
</g>
<!-- 3 -->
<g id="node4" class="node">
<title>3</title>
<path fill="none" stroke="#5692d8" stroke-width="2" d="M252,-324C252,-324 181,-324 181,-324 175,-324 169,-318 169,-312 169,-312 169,-300 169,-300 169,-294 175,-288 181,-288 181,-288 252,-288 252,-288 258,-288 264,-294 264,-300 264,-300 264,-312 264,-312 264,-318 258,-324 252,-324"/>
<text text-anchor="middle" x="216.5" y="-303.5" font-family="sans" font-size="10.00">generates_pairs</text>
</g>
<!-- 3&#45;&gt;2 -->
<g id="edge10" class="edge">
<title>3&#45;&gt;2</title>
<path fill="none" stroke="grey" stroke-width="2" d="M216.99,-287.7C217.21,-279.98 217.48,-270.71 217.73,-262.11"/>
<polygon fill="grey" stroke="grey" stroke-width="2" points="221.22,-262.2 218.01,-252.1 214.23,-262 221.22,-262.2"/>
</g>
<!-- 4 -->
<g id="node5" class="node">
<title>4</title>
<path fill="none" stroke="#d87556" stroke-width="2" d="M382,-396C382,-396 297,-396 297,-396 291,-396 285,-390 285,-384 285,-384 285,-372 285,-372 285,-366 291,-360 297,-360 297,-360 382,-360 382,-360 388,-360 394,-366 394,-372 394,-372 394,-384 394,-384 394,-390 388,-396 382,-396"/>
<text text-anchor="middle" x="339.5" y="-375.5" font-family="sans" font-size="10.00">bt2_index_metator</text>
</g>
<!-- 4&#45;&gt;3 -->
<g id="edge13" class="edge">
<title>4&#45;&gt;3</title>
<path fill="none" stroke="grey" stroke-width="2" d="M309.41,-359.88C293.18,-350.64 272.96,-339.13 255.53,-329.21"/>
<polygon fill="grey" stroke="grey" stroke-width="2" points="257.13,-326.09 246.7,-324.19 253.66,-332.18 257.13,-326.09"/>
</g>
<!-- 5 -->
<g id="node6" class="node">
<title>5</title>
<path fill="none" stroke="#d8b456" stroke-width="2" d="M432,-468C432,-468 329,-468 329,-468 323,-468 317,-462 317,-456 317,-456 317,-444 317,-444 317,-438 323,-432 329,-432 329,-432 432,-432 432,-432 438,-432 444,-438 444,-444 444,-444 444,-456 444,-456 444,-462 438,-468 432,-468"/>
<text text-anchor="middle" x="380.5" y="-447.5" font-family="sans" font-size="10.00">remove_small_contigs</text>
</g>
<!-- 5&#45;&gt;1 -->
<g id="edge8" class="edge">
<title>5&#45;&gt;1</title>
<path fill="none" stroke="grey" stroke-width="2" d="M390.04,-431.93C395.14,-421.82 400.89,-408.57 403.5,-396 414.12,-344.86 404.73,-255.03 386.5,-216 381.54,-205.38 373.62,-195.51 365.54,-187.23"/>
<polygon fill="grey" stroke="grey" stroke-width="2" points="367.77,-184.52 358.15,-180.1 362.91,-189.56 367.77,-184.52"/>
</g>
<!-- 5&#45;&gt;4 -->
<g id="edge14" class="edge">
<title>5&#45;&gt;4</title>
<path fill="none" stroke="grey" stroke-width="2" d="M370.37,-431.7C365.65,-423.64 359.94,-413.89 354.72,-404.98"/>
<polygon fill="grey" stroke="grey" stroke-width="2" points="357.59,-402.96 349.52,-396.1 351.55,-406.5 357.59,-402.96"/>
</g>
<!-- 5&#45;&gt;10 -->
<g id="edge17" class="edge">
<title>5&#45;&gt;10</title>
<path fill="none" stroke="grey" stroke-width="2" d="M316.92,-442.41C252.62,-434.55 158.91,-419.46 131.5,-396 99.33,-368.47 97.5,-349.34 97.5,-307 97.5,-307 97.5,-307 97.5,-233 97.5,-193 97.5,-146.65 97.5,-118.08"/>
<polygon fill="grey" stroke="grey" stroke-width="2" points="101,-118.05 97.5,-108.05 94,-118.05 101,-118.05"/>
</g>
<!-- 5&#45;&gt;11 -->
<g id="edge20" class="edge">
<title>5&#45;&gt;11</title>
<path fill="none" stroke="grey" stroke-width="2" d="M316.91,-441.59C258.54,-433.49 177.84,-418.57 155.5,-396 126.98,-367.19 135.5,-347.54 135.5,-307 135.5,-307 135.5,-307 135.5,-233 135.5,-189.61 159.84,-144.37 177.77,-116.94"/>
<polygon fill="grey" stroke="grey" stroke-width="2" points="180.88,-118.59 183.56,-108.34 175.07,-114.68 180.88,-118.59"/>
</g>
<!-- 5&#45;&gt;14 -->
<g id="edge25" class="edge">
<title>5&#45;&gt;14</title>
<path fill="none" stroke="grey" stroke-width="2" d="M397.86,-431.93C421.39,-406.89 460.5,-357.65 460.5,-307 460.5,-307 460.5,-307 460.5,-233 460.5,-190.01 482.69,-144.34 498.88,-116.74"/>
<polygon fill="grey" stroke="grey" stroke-width="2" points="501.93,-118.47 504.1,-108.1 495.94,-114.85 501.93,-118.47"/>
</g>
<!-- 16 -->
<g id="node17" class="node">
<title>16</title>
<path fill="none" stroke="#bed856" stroke-width="2" d="M580,-396C580,-396 521,-396 521,-396 515,-396 509,-390 509,-384 509,-384 509,-372 509,-372 509,-366 515,-360 521,-360 521,-360 580,-360 580,-360 586,-360 592,-366 592,-372 592,-372 592,-384 592,-384 592,-390 586,-396 580,-396"/>
<text text-anchor="middle" x="550.5" y="-375.5" font-family="sans" font-size="10.00">run_genomad</text>
</g>
<!-- 5&#45;&gt;16 -->
<g id="edge30" class="edge">
<title>5&#45;&gt;16</title>
<path fill="none" stroke="grey" stroke-width="2" d="M422.09,-431.88C445.53,-422.22 475,-410.09 499.8,-399.88"/>
<polygon fill="grey" stroke="grey" stroke-width="2" points="501.13,-403.11 509.05,-396.07 498.47,-396.64 501.13,-403.11"/>
</g>
<!-- 6 -->
<g id="node7" class="node">
<title>6</title>
<path fill="none" stroke="#d85656" stroke-width="2" d="M57,-396C57,-396 12,-396 12,-396 6,-396 0,-390 0,-384 0,-384 0,-372 0,-372 0,-366 6,-360 12,-360 12,-360 57,-360 57,-360 63,-360 69,-366 69,-372 69,-372 69,-384 69,-384 69,-390 63,-396 57,-396"/>
<text text-anchor="middle" x="34.5" y="-375.5" font-family="sans" font-size="10.00">cutsite_hic</text>
</g>
<!-- 6&#45;&gt;3 -->
<g id="edge12" class="edge">
<title>6&#45;&gt;3</title>
<path fill="none" stroke="grey" stroke-width="2" d="M69.16,-363.67C95.59,-353.5 132.48,-339.32 162.73,-327.68"/>
<polygon fill="grey" stroke="grey" stroke-width="2" points="164.22,-330.86 172.29,-324 161.7,-324.33 164.22,-330.86"/>
</g>
<!-- 7 -->
<g id="node8" class="node">
<title>7</title>
<path fill="none" stroke="#afd856" stroke-width="2" d="M56.5,-468C56.5,-468 12.5,-468 12.5,-468 6.5,-468 0.5,-462 0.5,-456 0.5,-456 0.5,-444 0.5,-444 0.5,-438 6.5,-432 12.5,-432 12.5,-432 56.5,-432 56.5,-432 62.5,-432 68.5,-438 68.5,-444 68.5,-444 68.5,-456 68.5,-456 68.5,-462 62.5,-468 56.5,-468"/>
<text text-anchor="middle" x="34.5" y="-447.5" font-family="sans" font-size="10.00">split_fastq</text>
</g>
<!-- 7&#45;&gt;6 -->
<g id="edge15" class="edge">
<title>7&#45;&gt;6</title>
<path fill="none" stroke="grey" stroke-width="2" d="M34.5,-431.7C34.5,-423.98 34.5,-414.71 34.5,-406.11"/>
<polygon fill="grey" stroke="grey" stroke-width="2" points="38,-406.1 34.5,-396.1 31,-406.1 38,-406.1"/>
</g>
<!-- 8 -->
<g id="node9" class="node">
<title>8</title>
<path fill="none" stroke="#d88556" stroke-width="2" d="M365.5,-252C365.5,-252 307.5,-252 307.5,-252 301.5,-252 295.5,-246 295.5,-240 295.5,-240 295.5,-228 295.5,-228 295.5,-222 301.5,-216 307.5,-216 307.5,-216 365.5,-216 365.5,-216 371.5,-216 377.5,-222 377.5,-228 377.5,-228 377.5,-240 377.5,-240 377.5,-246 371.5,-252 365.5,-252"/>
<text text-anchor="middle" x="336.5" y="-231.5" font-family="sans" font-size="10.00">build_louvain</text>
</g>
<!-- 8&#45;&gt;1 -->
<g id="edge9" class="edge">
<title>8&#45;&gt;1</title>
<path fill="none" stroke="grey" stroke-width="2" d="M336.5,-215.7C336.5,-207.98 336.5,-198.71 336.5,-190.11"/>
<polygon fill="grey" stroke="grey" stroke-width="2" points="340,-190.1 336.5,-180.1 333,-190.1 340,-190.1"/>
</g>
<!-- 9 -->
<g id="node10" class="node">
<title>9</title>
<path fill="none" stroke="#56d882" stroke-width="2" d="M255,-396C255,-396 176,-396 176,-396 170,-396 164,-390 164,-384 164,-384 164,-372 164,-372 164,-366 170,-360 176,-360 176,-360 255,-360 255,-360 261,-360 267,-366 267,-372 267,-372 267,-384 267,-384 267,-390 261,-396 255,-396"/>
<text text-anchor="middle" x="215.5" y="-375.5" font-family="sans" font-size="10.00">split_fastq_digest</text>
</g>
<!-- 9&#45;&gt;3 -->
<g id="edge11" class="edge">
<title>9&#45;&gt;3</title>
<path fill="none" stroke="grey" stroke-width="2" d="M215.75,-359.7C215.86,-351.98 215.99,-342.71 216.11,-334.11"/>
<polygon fill="grey" stroke="grey" stroke-width="2" points="219.61,-334.15 216.26,-324.1 212.61,-334.05 219.61,-334.15"/>
</g>
<!-- 10&#45;&gt;0 -->
<g id="edge5" class="edge">
<title>10&#45;&gt;0</title>
<path fill="none" stroke="grey" stroke-width="2" d="M133.55,-75.32C136.9,-74.16 140.25,-73.03 143.5,-72 199.03,-54.35 264.53,-37.59 304.53,-27.81"/>
<polygon fill="grey" stroke="grey" stroke-width="2" points="305.48,-31.18 314.37,-25.42 303.83,-24.38 305.48,-31.18"/>
</g>
<!-- 11&#45;&gt;0 -->
<g id="edge1" class="edge">
<title>11&#45;&gt;0</title>
<path fill="none" stroke="grey" stroke-width="2" d="M231.97,-71.88C254.13,-61.18 282.59,-47.44 304.94,-36.65"/>
<polygon fill="grey" stroke="grey" stroke-width="2" points="306.63,-39.72 314.12,-32.22 303.59,-33.42 306.63,-39.72"/>
</g>
<!-- 12&#45;&gt;0 -->
<g id="edge6" class="edge">
<title>12&#45;&gt;0</title>
<path fill="none" stroke="grey" stroke-width="2" d="M307.62,-71.7C312.86,-63.56 319.2,-53.69 324.98,-44.7"/>
<polygon fill="grey" stroke="grey" stroke-width="2" points="328.04,-46.41 330.5,-36.1 322.15,-42.62 328.04,-46.41"/>
</g>
<!-- 13&#45;&gt;0 -->
<g id="edge2" class="edge">
<title>13&#45;&gt;0</title>
<path fill="none" stroke="grey" stroke-width="2" d="M375.38,-71.7C370.14,-63.56 363.8,-53.69 358.02,-44.7"/>
<polygon fill="grey" stroke="grey" stroke-width="2" points="360.85,-42.62 352.5,-36.1 354.96,-46.41 360.85,-42.62"/>
</g>
<!-- 14&#45;&gt;0 -->
<g id="edge3" class="edge">
<title>14&#45;&gt;0</title>
<path fill="none" stroke="grey" stroke-width="2" d="M477.31,-73.64C447.74,-61.74 407.05,-45.37 377.93,-33.66"/>
<polygon fill="grey" stroke="grey" stroke-width="2" points="379.12,-30.36 368.53,-29.88 376.51,-36.86 379.12,-30.36"/>
</g>
<!-- 15 -->
<g id="node16" class="node">
<title>15</title>
<path fill="none" stroke="#9fd856" stroke-width="2" d="M620,-252C620,-252 501,-252 501,-252 495,-252 489,-246 489,-240 489,-240 489,-228 489,-228 489,-222 495,-216 501,-216 501,-216 620,-216 620,-216 626,-216 632,-222 632,-228 632,-228 632,-240 632,-240 632,-246 626,-252 620,-252"/>
<text text-anchor="middle" x="560.5" y="-231.5" font-family="sans" font-size="10.00">phage_curation_genomad</text>
</g>
<!-- 15&#45;&gt;14 -->
<g id="edge27" class="edge">
<title>15&#45;&gt;14</title>
<path fill="none" stroke="grey" stroke-width="2" d="M555.07,-215.87C547.37,-191.56 533.19,-146.82 524.06,-118.01"/>
<polygon fill="grey" stroke="grey" stroke-width="2" points="527.3,-116.66 520.95,-108.19 520.63,-118.78 527.3,-116.66"/>
</g>
<!-- 16&#45;&gt;15 -->
<g id="edge29" class="edge">
<title>16&#45;&gt;15</title>
<path fill="none" stroke="grey" stroke-width="2" d="M585.67,-359.94C599.48,-351.25 613.85,-339.26 621.5,-324 628.67,-309.7 628.14,-302.56 621.5,-288 616.27,-276.53 607.2,-266.58 597.63,-258.5"/>
<polygon fill="grey" stroke="grey" stroke-width="2" points="599.57,-255.58 589.54,-252.16 595.25,-261.09 599.57,-255.58"/>
</g>
<!-- 17 -->
<g id="node18" class="node">
<title>17</title>
<path fill="none" stroke="#ced856" stroke-width="2" d="M600,-324C600,-324 501,-324 501,-324 495,-324 489,-318 489,-312 489,-312 489,-300 489,-300 489,-294 495,-288 501,-288 501,-288 600,-288 600,-288 606,-288 612,-294 612,-300 612,-300 612,-312 612,-312 612,-318 606,-324 600,-324"/>
<text text-anchor="middle" x="550.5" y="-303.5" font-family="sans" font-size="10.00">run_checkv_genomad</text>
</g>
<!-- 16&#45;&gt;17 -->
<g id="edge31" class="edge">
<title>16&#45;&gt;17</title>
<path fill="none" stroke="grey" stroke-width="2" d="M550.5,-359.7C550.5,-351.98 550.5,-342.71 550.5,-334.11"/>
<polygon fill="grey" stroke="grey" stroke-width="2" points="554,-334.1 550.5,-324.1 547,-334.1 554,-334.1"/>
</g>
<!-- 17&#45;&gt;15 -->
<g id="edge28" class="edge">
<title>17&#45;&gt;15</title>
<path fill="none" stroke="grey" stroke-width="2" d="M552.97,-287.7C554.07,-279.98 555.4,-270.71 556.63,-262.11"/>
<polygon fill="grey" stroke="grey" stroke-width="2" points="560.11,-262.5 558.06,-252.1 553.18,-261.51 560.11,-262.5"/>
</g>
</g>
</svg>
